<?xml version="1.0" encoding="UTF-8"?>
<svg version="1.1" xmlns="http://www.w3.org/2000/svg" width="2000" height="1500">
<path d="M0 0 C660 0 1320 0 2000 0 C2000 495 2000 990 2000 1500 C1340 1500 680 1500 0 1500 C0 1005 0 510 0 0 Z " fill="#2563EA" transform="translate(0,0)"/>
<path d="M0 0 C18.87610724 14.97254966 34.36299614 35.09451518 40.0703125 58.875 C40.0703125 60.195 40.0703125 61.515 40.0703125 62.875 C33.21171389 60.94875528 26.64714396 58.60685336 20.0703125 55.875 C19.90473343 56.52784973 19.73915436 57.18069946 19.56855774 57.85333252 C17.67235779 65.08849034 15.29833814 72.04615053 12.67578125 79.046875 C12.25128189 80.19234299 11.82678253 81.33781097 11.38941956 82.51799011 C10.25075651 85.58919827 9.10823422 88.65893612 7.9641571 91.72813034 C6.0615445 96.83754591 4.17063349 101.95131524 2.27837753 107.06457329 C1.80347943 108.34772233 1.32841465 109.6308097 0.85318375 110.91383553 C-4.17198889 124.48231978 -9.07492518 138.09312114 -13.92895508 151.72363281 C-14.33187523 152.85349358 -14.33187523 152.85349358 -14.74293518 154.00617981 C-15.23596775 155.38957645 -15.72779037 156.7734052 -16.21812439 158.15776062 C-17.0359247 160.45453479 -17.83819617 162.69201734 -18.9296875 164.875 C-18.07117188 164.98714844 -17.21265625 165.09929687 -16.328125 165.21484375 C-12.7933619 165.90148164 -9.85365626 167.00794687 -6.5546875 168.4375 C-5.49507812 168.89253906 -4.43546875 169.34757813 -3.34375 169.81640625 C-2.54710937 170.16574219 -1.75046875 170.51507812 -0.9296875 170.875 C-4.66878733 175.00090327 -8.30859341 177.46436942 -13.3046875 179.875 C-14.00513184 180.21748779 -14.70557617 180.55997559 -15.42724609 180.9128418 C-22.40537486 184.23893169 -29.49049927 186.74951765 -36.9296875 188.875 C-37.97640625 189.1946875 -39.023125 189.514375 -40.1015625 189.84375 C-65.92116424 196.64501095 -93.36292295 190.83016207 -116.2421875 178 C-141.06748165 163.49144413 -157.77056469 140.63086333 -166.10546875 113.36328125 C-168.32994094 103.94880888 -169.31916011 94.79415326 -169.3046875 85.125 C-169.30307617 83.99046387 -169.30146484 82.85592773 -169.29980469 81.68701172 C-169.16603777 72.47676573 -167.83027627 64.60698079 -164.9296875 55.875 C-164.6409375 54.85019531 -164.3521875 53.82539062 -164.0546875 52.76953125 C-156.29116569 26.53298656 -136.63958517 5.05870905 -113.11474609 -8.14355469 C-77.51206758 -27.41907491 -32.5754346 -23.62804856 0 0 Z " fill="#010101" transform="translate(438.9296875,664.125)"/>
<path d="M0 0 C9.78845125 8.11973399 16.4027645 17.69656279 18.75 30.3125 C19.05147285 33.79643794 19.10087816 37.26593983 19.12109375 40.76171875 C19.13012222 41.73736282 19.1391507 42.7130069 19.14845276 43.71821594 C19.16288378 45.76792359 19.17182408 47.81767656 19.17553711 49.86743164 C19.18750608 53.00159227 19.23682219 56.13382774 19.28710938 59.26757812 C19.29656689 61.26561545 19.30380513 63.26366478 19.30859375 65.26171875 C19.32812607 66.19513596 19.34765839 67.12855316 19.36778259 68.09025574 C19.33608871 72.65178568 19.23638997 74.67055036 16.40649414 78.40551758 C13.75 80.3125 13.75 80.3125 10.6875 80.875 C7.75 80.3125 7.75 80.3125 5.4375 78.875 C3.01851002 75.20171892 2.93469363 71.63433086 2.75 67.3125 C2.22792969 67.83199219 1.70585938 68.35148438 1.16796875 68.88671875 C-8.37541892 77.92870251 -18.0742338 81.68322541 -31.12890625 81.5234375 C-42.14952142 80.77861495 -51.50185029 75.51110814 -59.0625 67.625 C-68.92240252 56.0548843 -70.16643333 43.23615673 -69.4765625 28.61376953 C-68.37606464 17.43565223 -60.79916988 7.90856475 -52.46484375 0.91796875 C-37.73473712 -9.75941013 -15.10206219 -10.44632047 0 0 Z " fill="#FAF5EE" transform="translate(880.25,718.6875)"/>
<path d="M0 0 C1.44354858 0.01426025 1.44354858 0.01426025 2.91625977 0.02880859 C12.70427215 0.31467441 21.28097846 2.83598697 28.53125 9.6953125 C35.39038859 17.73126408 39.28326767 26.02171556 40.125 36.5625 C40.24101563 37.73619141 40.24101563 37.73619141 40.359375 38.93359375 C40.40578125 39.71863281 40.4521875 40.50367188 40.5 41.3125 C40.54898437 42.02921875 40.59796875 42.7459375 40.6484375 43.484375 C39.82538991 46.75199678 37.8757077 47.73923605 35.125 49.5625 C32.13200378 50.04351807 32.13200378 50.04351807 28.77416992 50.01660156 C26.88277534 50.01614838 26.88277534 50.01614838 24.95317078 50.01568604 C23.5872636 49.99526265 22.22136295 49.97439872 20.85546875 49.953125 C19.45014757 49.94565885 18.04481593 49.93996768 16.63948059 49.93597412 C12.95178164 49.92074686 9.26471909 49.88149146 5.57727051 49.8371582 C1.81006478 49.7961419 -1.95724442 49.77794962 -5.72460938 49.7578125 C-13.10836214 49.71499324 -20.49159169 49.64677861 -27.875 49.5625 C-27.28870921 51.30680027 -26.68987058 53.04688551 -26.0859375 54.78515625 C-25.75384277 55.75461182 -25.42174805 56.72406738 -25.07958984 57.72290039 C-22.28680255 64.30638418 -17.07208895 69.13432314 -10.875 72.5625 C-1.54204478 76.16011961 7.5059346 75.3835001 16.6875 71.73046875 C19.20340252 70.57669679 19.20340252 70.57669679 21.74609375 68.953125 C24.81138545 67.16126319 26.62852176 67.04174792 30.125 67.5625 C32.5 69.25 32.5 69.25 34.125 71.5625 C34.42578125 74.01953125 34.42578125 74.01953125 34.125 76.5625 C28.24210635 83.95610652 16.09338156 87.39839219 7.125 88.5625 C-4.97146907 89.60914484 -15.87984495 86.96250897 -25.59375 79.53515625 C-36.11925965 70.43347411 -41.12027235 60.75132325 -42.1484375 46.87109375 C-42.47537196 34.40986091 -40.20033731 23.26545675 -31.81640625 13.5234375 C-22.63971157 4.25442195 -13.10348651 -0.20932455 0 0 Z " fill="#F9F5EE" transform="translate(1511.875,711.4375)"/>
<path d="M0 0 C0.90363281 -0.02900391 1.80726562 -0.05800781 2.73828125 -0.08789062 C12.43437073 -0.17857348 20.74754353 3.47581694 27.75390625 10.25 C36.04983925 19.05010573 39.35459005 28.64910557 40.1875 40.625 C39.63316784 45.29722822 38.36927587 46.40529738 34.75 49.3125 C31.75700378 49.91377258 31.75700378 49.91377258 28.39916992 49.88012695 C27.1382402 49.8797493 25.87731049 49.87937164 24.57817078 49.87898254 C23.21225994 49.85345324 21.84635931 49.82737333 20.48046875 49.80078125 C19.07515218 49.79144859 17.66981928 49.78433461 16.26448059 49.77934265 C12.57661541 49.76030772 8.88974449 49.71123971 5.20227051 49.65582275 C1.43511402 49.60455304 -2.33220411 49.5818123 -6.09960938 49.55664062 C-13.4835248 49.50311537 -20.86662276 49.41784782 -28.25 49.3125 C-27.81101654 50.89276473 -27.3625184 52.4703879 -26.91015625 54.046875 C-26.66144775 54.92569336 -26.41273926 55.80451172 -26.15649414 56.70996094 C-23.53127781 64.24694076 -18.44577019 68.28114509 -11.71484375 72.18359375 C-4.42566765 75.52205951 4.99179752 75.45188123 12.5625 73.0625 C15.39810523 71.99978669 17.82784735 70.68906311 20.375 69.0625 C24.4387154 66.95538831 26.39210947 67.11621633 30.75 68.3125 C32.75 70.3125 32.75 70.3125 33.125 73.1875 C32.75 76.3125 32.75 76.3125 31.375 78.375 C20.83246592 86.1563942 7.78318605 89.77168622 -5.25 88.3125 C-17.75145624 85.79422105 -27.92677383 80.23212222 -35.59375 69.94140625 C-42.89347234 58.35481867 -43.44389719 45.64349427 -42.25 32.3125 C-39.55786652 21.11461721 -32.4040404 12.07927658 -23.25 5.3125 C-15.67789972 0.69365879 -8.72448122 0.09177224 0 0 Z " fill="#F9F5EE" transform="translate(1164.25,711.6875)"/>
<path d="M0 0 C2.18066406 1.43261719 2.18066406 1.43261719 4 4 C4.61418327 7.18728793 4.60494414 10.3394595 4.609375 13.578125 C4.63417938 14.96798615 4.63417938 14.96798615 4.65948486 16.38592529 C4.70800726 19.340684 4.72934524 22.29492789 4.75 25.25 C4.77815613 27.25523429 4.80808305 29.26044456 4.83984375 31.265625 C4.91376745 36.17704096 4.96331624 41.08817041 5 46 C6.13308594 45.07574219 6.13308594 45.07574219 7.2890625 44.1328125 C16.58698838 36.8177296 25.33399812 35.30438747 37 36 C46.66927474 37.31331406 55.47923216 41.76537968 62 49 C68.69310123 58.36440549 70.31413117 66.11566004 70.3359375 77.4765625 C70.3459227 79.28077164 70.3459227 79.28077164 70.35610962 81.12142944 C70.36621484 83.65808587 70.3709273 86.19476877 70.37060547 88.73144531 C70.37499241 92.61827951 70.41137469 96.50399051 70.44921875 100.390625 C70.45508446 102.85676695 70.4590555 105.32291429 70.4609375 107.7890625 C70.47530853 108.95265289 70.48967957 110.11624329 70.50448608 111.31509399 C70.49833282 112.39656708 70.49217957 113.47804016 70.48583984 114.59228516 C70.48868988 115.54237457 70.49153992 116.49246399 70.49447632 117.47134399 C69.85062842 120.7638573 68.60807905 121.95275849 66 124 C62.55786339 124.57368944 60.81186757 124.51087624 57.84399414 122.64331055 C54.91483907 118.4444542 55.45611065 114.2055087 55.49609375 109.20703125 C55.48667252 108.1464299 55.47725128 107.08582855 55.46754456 105.99308777 C55.43885668 102.59936292 55.43581643 99.20633635 55.4375 95.8125 C55.43388324 92.43661775 55.42421528 89.06124717 55.39674377 85.68547058 C55.38006616 83.58634324 55.37699161 81.48704847 55.38975525 79.38789368 C55.32804152 70.7143387 53.94847805 62.9607902 47.765625 56.5078125 C40.98735875 50.71929309 33.36412999 50.24436628 24.7578125 50.61328125 C17.33671671 51.37699069 12.83093947 54.34089948 8 60 C5.47508609 63.62985174 4.6265556 66.03283828 4.63110352 70.4453125 C4.62422012 71.50991699 4.61733673 72.57452148 4.61024475 73.67138672 C4.61640305 74.8110791 4.62256134 75.95077148 4.62890625 77.125 C4.61152827 79.54687644 4.59394384 81.96875141 4.57617188 84.390625 C4.56608625 88.20250111 4.56250638 92.01428295 4.56420898 95.82617188 C4.56064365 99.5094007 4.53332111 103.19190062 4.50390625 106.875 C4.51208878 108.01469238 4.5202713 109.15438477 4.52870178 110.32861328 C4.45456906 118.19285677 4.45456906 118.19285677 2.18725586 122.21875 C0 124 0 124 -3.5 124.625 C-7 124 -7 124 -9.18640137 122.15223694 C-11.87601869 117.4773817 -11.55845317 113.24526216 -11.51757812 107.93920898 C-11.5245874 106.82324341 -11.53159668 105.70727783 -11.53881836 104.55749512 C-11.55641827 100.87010796 -11.5447685 97.18348866 -11.53125 93.49609375 C-11.53394413 90.93449252 -11.53782588 88.37289228 -11.54284668 85.81129456 C-11.54874432 80.44383052 -11.5405508 75.07664169 -11.52148438 69.70922852 C-11.49970539 63.50662577 -11.50677636 57.30454876 -11.52879 51.10195869 C-11.54913586 45.12984368 -11.54697436 39.15789187 -11.53526306 33.18574715 C-11.53259161 30.64637237 -11.53588016 28.1069842 -11.54518127 25.56762505 C-11.5553191 22.02185172 -11.53988335 18.477094 -11.51757812 14.93139648 C-11.52567505 13.87829788 -11.53377197 12.82519928 -11.54211426 11.7401886 C-11.45957579 4.67202171 -11.45957579 4.67202171 -9.18640137 1.34803772 C-5.94796648 -0.64863702 -3.72174439 -0.53167777 0 0 Z " fill="#FAF6EE" transform="translate(1377,675)"/>
<path d="M0 0 C2.15911865 1.09870911 2.15911865 1.09870911 4 3 C4.48101807 6.05619812 4.48101807 6.05619812 4.45410156 9.8581543 C4.45468567 10.55109589 4.45526978 11.24403748 4.45587158 11.95797729 C4.45308592 14.24723499 4.42197404 16.53518871 4.390625 18.82421875 C4.38316425 20.41176136 4.37747053 21.99931318 4.37347412 23.58686829 C4.35820449 27.76446986 4.31891182 31.94151479 4.2746582 36.11889648 C4.23373381 40.38192209 4.2154692 44.64503769 4.1953125 48.90820312 C4.15241832 57.27239082 4.08415157 65.63612616 4 74 C5.26857336 72.89297242 6.53671909 71.7854548 7.8046875 70.67773438 C8.86405518 69.75269104 8.86405518 69.75269104 9.94482422 68.80895996 C12.66804531 66.41198839 15.33529461 63.96195607 18 61.5 C21.92653961 57.88311083 25.88983771 54.31865204 29.92578125 50.82421875 C33.49623715 47.68410029 36.98527158 44.45355014 40.484375 41.234375 C46.41187194 35.96957958 46.41187194 35.96957958 50.625 36.1875 C54 37 54 37 56 39 C56.625 42.125 56.625 42.125 56 46 C53.68231206 49.06223018 50.8988465 51.49599639 48 54 C47.37609375 54.55300781 46.7521875 55.10601563 46.109375 55.67578125 C44.8409224 56.79233931 43.56586483 57.90142749 42.28515625 59.00390625 C39.37885985 61.54256857 36.53145163 64.14190288 33.6875 66.75 C32.9135791 67.45829956 32.9135791 67.45829956 32.12402344 68.1809082 C29.69988218 70.40728219 27.30002305 72.6450276 25 75 C30.39710133 81.96299147 35.82928322 88.87203159 41.5625 95.5625 C45.3195776 99.98115878 49.05832147 104.41290285 52.6875 108.9375 C53.51636719 109.95714844 54.34523438 110.97679687 55.19921875 112.02734375 C57.23836402 115.3934816 57.51783471 117.13531779 57 121 C55.375 123.375 55.375 123.375 53 125 C47.77554721 125.58748867 47.77554721 125.58748867 45.05078125 123.5234375 C44.47714844 122.81445312 43.90351562 122.10546875 43.3125 121.375 C42.29542969 120.14136719 42.29542969 120.14136719 41.2578125 118.8828125 C40.14019531 117.45582031 40.14019531 117.45582031 39 116 C38.14332377 114.91398787 37.28654859 113.82805378 36.4296875 112.7421875 C35.04702194 110.98424122 33.66738626 109.22414955 32.29394531 107.45898438 C28.96758088 103.19110918 25.5563433 99.00682891 22.0625 94.875 C21.38997192 94.07690918 21.38997192 94.07690918 20.70385742 93.26269531 C18.25068348 90.37944049 15.71751671 87.63554985 13 85 C9.75588302 86.94325364 7.27336916 88.96055153 5 92 C3.95916025 96.73759 4.10651543 101.35602832 4.25 106.1875 C4.29336826 108.70158375 4.32014686 111.21602363 4.328125 113.73046875 C4.3580957 114.83801514 4.38806641 115.94556152 4.41894531 117.08666992 C3.89970232 120.69746635 2.87463314 121.82524093 0 124 C-3.43375 124.57229167 -5.186004 124.50660935 -8.15515137 122.65869141 C-11.11628955 118.3912667 -10.55617941 114.033549 -10.51757812 108.9609375 C-10.5245874 107.83536438 -10.53159668 106.70979126 -10.53881836 105.55010986 C-10.5564416 101.82482322 -10.54475945 98.10029454 -10.53125 94.375 C-10.53394365 91.78954929 -10.537825 89.20409958 -10.54284668 86.61865234 C-10.54874764 81.19813467 -10.54054013 75.77790254 -10.52148438 70.35742188 C-10.49971563 64.09292562 -10.50676714 57.82895011 -10.52879 51.56446648 C-10.54913662 45.53519373 -10.5469737 39.50617554 -10.53526306 33.47686768 C-10.53259125 30.91237312 -10.53588142 28.34786531 -10.54518127 25.78338623 C-10.55531922 22.20158484 -10.5398826 18.62078884 -10.51757812 15.0390625 C-10.52567505 13.97504211 -10.53377197 12.91102173 -10.54211426 11.8147583 C-10.45944464 4.66309843 -10.45944464 4.66309843 -8.15515137 1.33740234 C-5.21076093 -0.48977079 -3.40612454 -0.4967265 0 0 Z " fill="#FCF7EE" transform="translate(1678,675)"/>
<path d="M0 0 C8.07550741 5.07975466 12.76347164 12.60651648 15.43840027 21.62158203 C15.98190199 24.18492623 16.05575634 26.55487949 16.08325195 29.17578125 C16.10250481 30.77764282 16.10250481 30.77764282 16.12214661 32.41186523 C16.12953354 33.55985596 16.13692047 34.70784668 16.14453125 35.890625 C16.152603 37.07406494 16.16067474 38.25750488 16.16899109 39.47680664 C16.18281449 41.97833802 16.19354443 44.47988812 16.20141602 46.98144531 C16.21868414 50.81351026 16.26259368 54.64472468 16.30664062 58.4765625 C16.31676296 60.90624366 16.3252805 63.33593214 16.33203125 65.765625 C16.34953934 66.91361572 16.36704742 68.06160645 16.38508606 69.24438477 C16.38216049 70.31229248 16.37923492 71.3802002 16.3762207 72.48046875 C16.38208694 73.41882568 16.38795319 74.35718262 16.39399719 75.32397461 C15.75551503 78.60201576 14.50005965 79.78850868 11.90625 81.828125 C8.46411339 82.40181444 6.71811757 82.33900124 3.75024414 80.47143555 C0.82108907 76.2725792 1.36236065 72.0336337 1.40234375 67.03515625 C1.39292252 65.9745549 1.38350128 64.91395355 1.37379456 63.82121277 C1.34510668 60.42748792 1.34206643 57.03446135 1.34375 53.640625 C1.34013324 50.26474275 1.33046528 46.88937217 1.30299377 43.51359558 C1.28631616 41.41446824 1.28324161 39.31517347 1.29600525 37.21601868 C1.23429152 28.5424637 -0.14527195 20.7889152 -6.328125 14.3359375 C-13.10639125 8.54741809 -20.72962001 8.07249128 -29.3359375 8.44140625 C-36.75703329 9.20511569 -41.26281053 12.16902448 -46.09375 17.828125 C-48.61866391 21.45797674 -49.4671944 23.86096328 -49.46264648 28.2734375 C-49.46952988 29.33804199 -49.47641327 30.40264648 -49.48350525 31.49951172 C-49.47734695 32.6392041 -49.47118866 33.77889648 -49.46484375 34.953125 C-49.48222173 37.37500144 -49.49980616 39.79687641 -49.51757812 42.21875 C-49.52766375 46.03062611 -49.53124362 49.84240795 -49.52954102 53.65429688 C-49.53310635 57.3375257 -49.56042889 61.02002562 -49.58984375 64.703125 C-49.58166122 65.84281738 -49.5734787 66.98250977 -49.56504822 68.15673828 C-49.63918094 76.02098177 -49.63918094 76.02098177 -51.90649414 80.046875 C-54.09375 81.828125 -54.09375 81.828125 -57.59375 82.453125 C-61.09375 81.828125 -61.09375 81.828125 -63.28015137 79.76808167 C-65.50638925 76.159211 -65.65855214 73.27618464 -65.61132812 69.16381836 C-65.6183374 68.40873489 -65.62534668 67.65365143 -65.63256836 66.87568665 C-65.65011853 64.38940236 -65.63853819 61.90426382 -65.625 59.41796875 C-65.62769551 57.68591596 -65.63157842 55.95386464 -65.63659668 54.22181702 C-65.64248742 50.59621742 -65.63394159 46.97101262 -65.61523438 43.34545898 C-65.59242776 38.69912065 -65.605581 34.05370567 -65.62952423 29.40740108 C-65.64397927 25.83257592 -65.63937792 22.25796966 -65.62901306 18.68313789 C-65.62634583 16.96992445 -65.62961542 15.25669109 -65.63893127 13.5435009 C-65.64909429 11.14947731 -65.63360199 8.75694931 -65.61132812 6.36303711 C-65.61942505 5.65591583 -65.62752197 4.94879456 -65.63586426 4.22024536 C-65.57798741 0.86145021 -65.30008406 -0.90002527 -63.24499512 -3.60765076 C-61.09375 -5.171875 -61.09375 -5.171875 -58.15625 -5.734375 C-54.0675213 -4.98338401 -52.64962662 -3.38497704 -50.09375 -0.171875 C-49.45703125 2 -49.45703125 2 -49.09375 3.828125 C-48.64386719 3.44140625 -48.19398438 3.0546875 -47.73046875 2.65625 C-33.01019005 -9.26157083 -16.14360496 -8.39793591 0 0 Z " fill="#FBF6EE" transform="translate(772.09375,717.171875)"/>
<path d="M0 0 C7.96044311 5.71075267 13.26935209 14.65994526 15.125 24.25 C15.43193792 28.21097844 15.45279529 32.16122031 15.4609375 36.1328125 C15.4709227 37.8314595 15.4709227 37.8314595 15.48110962 39.56442261 C15.49120293 41.94967023 15.49592767 44.33494589 15.49560547 46.72021484 C15.49999391 50.36993533 15.53639238 54.01846068 15.57421875 57.66796875 C15.58008449 59.98957921 15.5840555 62.31119539 15.5859375 64.6328125 C15.60030853 65.72248322 15.61467957 66.81215393 15.62948608 67.93484497 C15.58411647 75.4416231 15.58411647 75.4416231 13.31494141 79.43701172 C11.125 81.25 11.125 81.25 7.625 81.875 C4.125 81.25 4.125 81.25 1.93334961 79.41674805 C-0.77389534 74.67587128 -0.38189864 70.32376115 -0.30859375 64.95703125 C-0.31820422 62.69466079 -0.32797493 60.43229101 -0.33789062 58.16992188 C-0.32931445 54.61962937 -0.31254401 51.06951953 -0.2902832 47.51928711 C-0.27567883 44.08151349 -0.29107974 40.64476936 -0.30859375 37.20703125 C-0.29211288 36.15876663 -0.27563202 35.11050201 -0.25865173 34.0304718 C-0.30743855 26.75364629 -1.86345465 21.36586327 -5.875 15.25 C-8.0716831 12.96439875 -8.0716831 12.96439875 -10.5 11.6875 C-11.25539063 11.23246094 -12.01078125 10.77742187 -12.7890625 10.30859375 C-19.7055195 6.79855658 -29.58890554 6.99763991 -36.9765625 9.15625 C-43.01004424 11.99982448 -47.10332171 15.49284371 -49.98403931 21.60191345 C-50.93898233 24.44016636 -51.12627646 26.63221782 -51.13037109 29.61938477 C-51.13733002 30.6671962 -51.14428894 31.71500763 -51.15145874 32.79457092 C-51.15046173 33.91552658 -51.14946472 35.03648224 -51.1484375 36.19140625 C-51.16871777 38.5722704 -51.18956838 40.95312975 -51.2109375 43.33398438 C-51.23358455 47.08231676 -51.25002794 50.83045963 -51.25585938 54.57885742 C-51.26535573 58.20005381 -51.29908944 61.82039958 -51.3359375 65.44140625 C-51.33089203 66.56438614 -51.32584656 67.68736603 -51.32064819 68.84437561 C-51.33391144 69.88903488 -51.34717468 70.93369415 -51.36083984 72.01000977 C-51.3651149 73.38637352 -51.3651149 73.38637352 -51.36947632 74.7905426 C-52.03437568 78.0253894 -53.31481376 79.22625048 -55.875 81.25 C-58.875 81.75 -58.875 81.75 -61.875 81.25 C-64.03015137 79.69641113 -64.03015137 79.69641113 -65.875 77.25 C-66.26988365 74.56534158 -66.42282777 72.28998983 -66.39257812 69.60742188 C-66.3995874 68.84273087 -66.40659668 68.07803986 -66.41381836 67.29017639 C-66.4314035 64.76599666 -66.41977449 62.24294085 -66.40625 59.71875 C-66.40894478 57.96284775 -66.41282709 56.20694695 -66.41784668 54.4510498 C-66.42374241 50.77239768 -66.41517655 47.09413426 -66.39648438 43.41552734 C-66.37369456 38.70078339 -66.38681728 33.98695022 -66.41077423 29.27223969 C-66.42523032 25.64680116 -66.42062714 22.02157846 -66.41026306 18.39613342 C-66.40759524 16.65780021 -66.4108675 14.91944739 -66.42018127 13.18113708 C-66.43034406 10.75108967 -66.41485131 8.32251581 -66.39257812 5.89257812 C-66.40472351 4.81551353 -66.40472351 4.81551353 -66.41711426 3.71669006 C-66.35972672 0.33612837 -66.09014421 -1.46470223 -64.03015137 -4.19641113 C-61.875 -5.75 -61.875 -5.75 -58.875 -6.25 C-55.17932037 -5.63405339 -54.06724294 -4.75418477 -51.875 -1.75 C-51.49567263 -0.09319596 -51.15577687 1.57367866 -50.875 3.25 C-50.35292969 2.86328125 -49.83085938 2.4765625 -49.29296875 2.078125 C-33.71913653 -8.9408386 -16.53560123 -10.10355601 0 0 Z " fill="#FBF6EE" transform="translate(988.875,717.75)"/>
<path d="M0 0 C6.59112909 3.99054755 11.85824237 10.00491961 14.70703125 17.1953125 C17.12524851 27.34899665 16.51688886 37.39275358 11.2109375 46.47265625 C6.70941097 52.66943851 1.086228 57.66719516 -6.625 59 C-15.12451333 59.70243912 -23.4664969 60.33824804 -30.625 55 C-31.676875 54.2575 -32.72875 53.515 -33.8125 52.75 C-39.59286942 47.09808324 -43.19133682 40.58371892 -43.9609375 32.44921875 C-44.04146127 24.69477988 -43.8207248 18.63237243 -39.625 12 C-39.18929687 11.29230469 -38.75359375 10.58460938 -38.3046875 9.85546875 C-30.0380318 -2.31864989 -13.38517188 -6.16504053 0 0 Z " fill="#2664EB" transform="translate(868.625,727)"/>
<path d="M0 0 C1.41152344 -0.03867187 1.41152344 -0.03867187 2.8515625 -0.078125 C5.375 0.25 5.375 0.25 7.1875 1.546875 C9.1715454 4.39241379 8.73315882 6.90718435 8.375 10.25 C6.66172431 12.70165713 5.61603642 13.1974798 2.66796875 13.83984375 C1.13076172 14.01193359 1.13076172 14.01193359 -0.4375 14.1875 C-5.48024447 14.95910066 -8.86402082 15.58075202 -12.625 19.25 C-17.1606674 25.90479069 -18.45855991 32.29113768 -18.625 40.25 C-18.04008789 40.22905273 -17.45517578 40.20810547 -16.85253906 40.18652344 C-14.19353535 40.10319885 -11.53480645 40.05129103 -8.875 40 C-7.95460938 39.96648438 -7.03421875 39.93296875 -6.0859375 39.8984375 C0.70975034 39.79994927 0.70975034 39.79994927 4.01953125 42.0390625 C5.375 44.25 5.375 44.25 5.3125 47.875 C4.375 51.25 4.375 51.25 1.375 53.25 C-0.80151367 53.47705078 -0.80151367 53.47705078 -3.29296875 53.4453125 C-4.18564453 53.43886719 -5.07832031 53.43242188 -5.99804688 53.42578125 C-6.92681641 53.40902344 -7.85558594 53.39226563 -8.8125 53.375 C-9.75287109 53.36597656 -10.69324219 53.35695313 -11.66210938 53.34765625 C-13.98332968 53.32409056 -16.30403644 53.29119116 -18.625 53.25 C-18.61389694 54.06574997 -18.60279388 54.88149994 -18.59135437 55.7219696 C-18.49108888 63.41690232 -18.41500355 71.11151748 -18.36593914 78.8069334 C-18.33986618 82.76309303 -18.30451191 86.71871205 -18.24780273 90.67456055 C-18.19339821 94.49362802 -18.16356214 98.3121762 -18.15061378 102.13160133 C-18.14138881 103.58729031 -18.12337382 105.04295146 -18.09634972 106.49841881 C-18.05994257 108.54082579 -18.05505884 110.58109903 -18.05737305 112.6237793 C-18.04626999 113.78515915 -18.03516693 114.946539 -18.02372742 116.14311218 C-18.81118401 120.21204755 -20.43192205 121.69532118 -23.625 124.25 C-26.6875 124.875 -26.6875 124.875 -29.625 124.25 C-32.32924109 121.58376349 -33.52035524 119.9258988 -34.10601807 116.14311218 C-34.09713562 114.98173233 -34.08825317 113.82035248 -34.07910156 112.6237793 C-34.07968567 111.97931351 -34.08026978 111.33484772 -34.08087158 110.67085266 C-34.07809954 108.55474728 -34.04705361 106.44007595 -34.015625 104.32421875 C-34.00815937 102.85163645 -34.00246796 101.37904417 -33.99847412 99.90644836 C-33.98324282 96.04121194 -33.94398363 92.17658215 -33.8996582 88.31158447 C-33.85865082 84.36340541 -33.8404515 80.41512778 -33.8203125 76.46679688 C-33.77748605 68.72758881 -33.70926624 60.98887959 -33.625 53.25 C-34.76388672 53.30220703 -34.76388672 53.30220703 -35.92578125 53.35546875 C-36.91964844 53.38253906 -37.91351562 53.40960937 -38.9375 53.4375 C-39.92363281 53.47230469 -40.90976562 53.50710938 -41.92578125 53.54296875 C-44.625 53.25 -44.625 53.25 -46.45703125 51.95703125 C-48.41047961 49.10199133 -47.98245403 46.58623765 -47.625 43.25 C-46.45703125 41.54296875 -46.45703125 41.54296875 -44.625 40.25 C-41.92578125 39.95703125 -41.92578125 39.95703125 -38.9375 40.0625 C-37.94363281 40.08957031 -36.94976563 40.11664062 -35.92578125 40.14453125 C-34.78689453 40.19673828 -34.78689453 40.19673828 -33.625 40.25 C-33.65980469 39.64414062 -33.69460938 39.03828125 -33.73046875 38.4140625 C-34.07348303 27.79695374 -31.13458586 18.71977576 -24.625 10.25 C-17.54201281 3.53459299 -9.73554716 0.16091813 0 0 Z " fill="#F9F5EE" transform="translate(637.625,674.75)"/>
<path d="M0 0 C3.54933286 2.80611685 6.82524483 5.77865513 10 9 C10.495 9.495 10.495 9.495 11 10 C10.75 13.4375 10.75 13.4375 10 17 C6.38751859 19.40832094 5.26125032 19.72360855 1 19 C-0.88671875 17.5390625 -0.88671875 17.5390625 -2.875 15.6875 C-9.90890296 9.15601868 -16.13896119 8.47487734 -25.66015625 8.71875 C-33.20447811 9.35406131 -39.0532074 12.18871937 -44 18 C-50.09368263 26.67888133 -50.23933476 36.80232418 -49 47 C-46.93839705 55.99209798 -41.95326946 60.76191595 -34.6484375 65.984375 C-28.31173165 69.88850657 -18.13831428 68.79262696 -11 68 C-7.07191829 66.67951622 -3.93357573 64.93357573 -1 62 C5.2080292 61.54014599 5.2080292 61.54014599 7.9375 63.125 C9.61176855 66.07959156 9.65622046 67.65327567 9 71 C4.58867372 76.94178641 -3.01975932 80.31262777 -10 82 C-13.54561232 82.37643721 -17.0608515 82.48055121 -20.625 82.5 C-21.49527832 82.50628418 -22.36555664 82.51256836 -23.26220703 82.51904297 C-34.80639517 82.29482057 -43.34821798 78.61675288 -52 71 C-61.99042291 60.38055046 -65.58484097 48.82218643 -65.3125 34.37109375 C-64.18533581 22.21181008 -58.8216602 12.00944816 -50.05859375 3.63671875 C-36.65188756 -7.02250306 -14.75107126 -9.57833305 0 0 Z " fill="#F9F5EE" transform="translate(1091,717)"/>
<path d="M0 0 C6.74084492 5.61263037 6.74084492 5.61263037 7.95703125 10.01171875 C8.08984375 12.875 8.08984375 12.875 6.52734375 15.25 C4.08984375 16.875 4.08984375 16.875 1.33984375 17.5625 C-2.23153501 16.80701603 -3.1711883 15.98170171 -5.78515625 13.5625 C-12.53886897 7.31468337 -18.80105889 6.29880569 -27.90185547 6.31665039 C-35.56224924 6.63127691 -40.61963494 9.34354093 -45.77734375 14.87890625 C-53.14929867 24.17321304 -53.12237104 34.42364292 -51.91015625 45.875 C-49.42698376 54.69949729 -43.60557898 60.19082965 -35.91015625 64.875 C-28.52848371 67.33555751 -17.86432545 67.51500004 -10.6796875 64.53515625 C-9.06603784 63.47189872 -7.47658548 62.37037446 -5.921875 61.22265625 C-2.86237294 59.17308691 -0.45396536 59.22409629 3.08984375 59.875 C5.02734375 61 5.02734375 61 6.08984375 62.875 C6.71484375 65.6875 6.71484375 65.6875 6.08984375 68.875 C1.7716917 74.69128643 -5.93163236 78.51667729 -12.91015625 79.875 C-16.80903851 80.27947222 -20.679358 80.40075817 -24.59765625 80.4375 C-26.05848633 80.45949463 -26.05848633 80.45949463 -27.54882812 80.48193359 C-34.17988784 80.38839553 -39.1068733 79.06019315 -44.91015625 75.875 C-45.76867188 75.40578125 -46.6271875 74.9365625 -47.51171875 74.453125 C-58.12967414 67.48381065 -64.98477363 57.70873772 -67.625 45.1484375 C-69.2645396 32.07703962 -67.45320062 19.64796709 -59.52734375 8.86328125 C-45.09000365 -8.88697505 -19.06866225 -13.92396277 0 0 Z " fill="#FAF5EE" transform="translate(1635.91015625,719.125)"/>
<path d="M0 0 C3.54933286 2.80611685 6.82524483 5.77865513 10 9 C10.495 9.495 10.495 9.495 11 10 C10.75 13.4375 10.75 13.4375 10 17 C6.38751859 19.40832094 5.26125032 19.72360855 1 19 C-0.88671875 17.5390625 -0.88671875 17.5390625 -2.875 15.6875 C-9.9096861 9.15529148 -16.1353279 8.48088947 -25.65625 8.71484375 C-31.70495651 9.2306797 -36.99781515 11.01650316 -41.546875 15.265625 C-48.591379 23.67358139 -50.016623 32.24520579 -49.44921875 42.84765625 C-48.68894692 51.42896116 -44.6093959 58.44858294 -38 64 C-32.30008719 67.71546815 -27.29570116 68.68208425 -20.5625 68.5625 C-19.7286377 68.55661865 -18.89477539 68.5507373 -18.03564453 68.54467773 C-11.28975285 68.33919563 -5.89568537 66.89568537 -1 62 C5.2080292 61.54014599 5.2080292 61.54014599 7.9375 63.125 C9.61176855 66.07959156 9.65622046 67.65327567 9 71 C4.58920244 76.94107426 -3.02002294 80.31443278 -10 82 C-13.5664052 82.37615816 -17.10269827 82.48053444 -20.6875 82.5 C-22.00548584 82.50942627 -22.00548584 82.50942627 -23.35009766 82.51904297 C-34.12916655 82.31046809 -43.96278836 78.45107459 -52.01171875 71.18359375 C-56.47667198 66.38933811 -59.47919743 61.02349079 -62 55 C-62.36738281 54.13117187 -62.73476562 53.26234375 -63.11328125 52.3671875 C-64.35799419 47.64056833 -64.36842134 43.11820833 -64.375 38.25 C-64.39949219 37.3115625 -64.42398437 36.373125 -64.44921875 35.40625 C-64.49657626 23.97730517 -59.76617384 14.0229237 -51.89453125 5.80078125 C-38.46789365 -6.7014751 -15.98750207 -10.38118634 0 0 Z " fill="#FAF6EE" transform="translate(1331,717)"/>
<path d="M0 0 C2.10004397 0.00849827 4.19734202 -0.02036181 6.29711914 -0.05200195 C32.64167471 -0.18693368 57.15742153 11.47922513 76.79907227 28.44604492 C77.54672852 29.09057617 78.29438477 29.73510742 79.06469727 30.39916992 C93.36946969 43.77355064 104.51779089 63.36286281 108.79907227 82.44604492 C108.79907227 83.76604492 108.79907227 85.08604492 108.79907227 86.44604492 C107.80907227 86.11604492 106.81907227 85.78604492 105.79907227 85.44604492 C104.93771971 83.08112996 104.2515651 80.80869185 103.61157227 78.38354492 C95.83767125 51.6191573 78.27569825 29.89787169 54.01782227 16.28979492 C28.38454115 2.48848259 -0.77566755 -0.46658919 -28.71606445 7.66333008 C-44.98555388 12.78810735 -58.97708379 21.58677177 -71.20092773 33.44604492 C-71.87381836 34.04545898 -72.54670898 34.64487305 -73.23999023 35.26245117 C-87.3479269 48.27435292 -95.77446068 67.11082121 -100.20092773 85.44604492 C-100.37825439 86.09653809 -100.55558105 86.74703125 -100.73828125 87.41723633 C-102.40654786 93.96705744 -102.54729046 100.33530801 -102.51342773 107.07104492 C-102.50851318 108.22386963 -102.50359863 109.37669434 -102.49853516 110.56445312 C-102.37974529 119.22636634 -101.60835783 127.08799123 -99.20092773 135.44604492 C-98.86061523 136.66936523 -98.52030273 137.89268555 -98.16967773 139.15307617 C-90.04921553 165.79148427 -71.8361365 188.38621106 -47.22045898 201.5012207 C-40.15614099 205.09409953 -32.88415942 208.43677874 -25.20092773 210.44604492 C-24.21092773 210.72319336 -23.22092773 211.0003418 -22.20092773 211.28588867 C2.90633873 217.36655477 32.18626436 213.77271205 54.46704102 200.28588867 C56.71091205 198.89567749 58.89931062 197.45796029 61.09204102 195.98510742 C63.79907227 194.44604492 63.79907227 194.44604492 67.79907227 194.44604492 C63.73378011 199.01745779 59.33610598 201.6574863 53.92407227 204.44604492 C53.08561768 204.88174805 52.24716309 205.31745117 51.38330078 205.76635742 C36.20009212 213.46675289 21.43547165 216.80170579 4.42407227 216.69604492 C3.18657227 216.7037793 1.94907227 216.71151367 0.67407227 216.71948242 C-30.86358565 216.65308735 -56.50289915 203.10933271 -78.41577148 181.23510742 C-88.34223672 170.65998208 -95.20675725 157.96631334 -100.20092773 144.44604492 C-100.58837158 143.42559082 -100.58837158 143.42559082 -100.98364258 142.38452148 C-110.10053191 117.35845532 -107.12577393 86.39242496 -96.20092773 62.44604492 C-90.97762453 51.49564164 -84.41310871 42.33437852 -76.20092773 33.44604492 C-75.54608398 32.70999023 -74.89124023 31.97393555 -74.21655273 31.21557617 C-55.59436493 11.28028538 -26.9266586 -0.16519422 0 0 Z " fill="#E9E7E4" transform="translate(373.200927734375,641.553955078125)"/>
<path d="M0 0 C4.16111574 0.76428657 5.4386265 2.28171218 8.0625 5.5625 C8.55877402 8.2910649 8.74914519 10.39813787 8.70947266 13.11914062 C8.71823425 13.86286423 8.72699585 14.60658783 8.73602295 15.37284851 C8.75796256 17.82208243 8.74348541 20.26949895 8.7265625 22.71875 C8.72993224 24.42598821 8.73478619 26.13322408 8.74105835 27.8404541 C8.74842224 31.41486499 8.73774028 34.98865024 8.71435547 38.56298828 C8.68586733 43.1399134 8.70227398 47.7153726 8.73221779 52.29224396 C8.75030421 55.81653853 8.74452671 59.34048675 8.73157883 62.86479187 C8.7282485 64.55205968 8.7323188 66.23935915 8.74397659 67.92658997 C8.75670838 70.28719091 8.73728016 72.64543369 8.70947266 75.00585938 C8.71959381 75.70003464 8.72971497 76.3942099 8.74014282 77.10942078 C8.65730957 80.91374494 8.12033993 82.49017924 5.71347046 85.49963379 C3.0625 87.5625 3.0625 87.5625 0 88.125 C-3.69470849 87.41750263 -4.67661032 86.54950175 -6.9375 83.5625 C-7.33238365 80.87784158 -7.48532777 78.60248983 -7.45507812 75.91992188 C-7.4620874 75.15523087 -7.46909668 74.39053986 -7.47631836 73.60267639 C-7.4939035 71.07849666 -7.48227449 68.55544085 -7.46875 66.03125 C-7.47144478 64.27534775 -7.47532709 62.51944695 -7.48034668 60.7635498 C-7.48624241 57.08489768 -7.47767655 53.40663426 -7.45898438 49.72802734 C-7.43619456 45.01328339 -7.44931728 40.29945022 -7.47327423 35.58473969 C-7.48773032 31.95930116 -7.48312714 28.33407846 -7.47276306 24.70863342 C-7.47009524 22.97030021 -7.4733675 21.23194739 -7.48268127 19.49363708 C-7.49284406 17.06358967 -7.47735131 14.63501581 -7.45507812 12.20507812 C-7.46722351 11.12801353 -7.46722351 11.12801353 -7.47961426 10.02919006 C-7.42219764 6.64691575 -7.15488456 4.84970024 -5.08874512 2.11999512 C-2.9375 0.5625 -2.9375 0.5625 0 0 Z " fill="#F7F3EE" transform="translate(668.9375,711.4375)"/>
<path d="M0 0 C2.73417931 1.55701545 4.84025886 2.90275886 7.0625 5.125 C6.6875 7.75 6.6875 7.75 6.0625 10.125 C4.0625 10.9375 4.0625 10.9375 1.0625 11.125 C-1.12018777 10.02516316 -3.06565765 8.7478007 -5.0703125 7.3515625 C-9.86834528 4.1997167 -15.42589089 4.49736912 -20.9375 5.125 C-29.55176585 7.86925898 -34.62513708 12.80858922 -38.8125 20.625 C-41.27193163 28.22553269 -41.59679903 37.91766441 -37.9375 45.125 C-34.00263902 51.03847006 -28.76797294 55.94701986 -21.9375 58.125 C-12.53690246 59.25412205 -5.70209803 57.30139869 2.0625 52.125 C4.25 52.5 4.25 52.5 6.0625 53.125 C6.5575 55.6 6.5575 55.6 7.0625 58.125 C0.07540455 64.58806329 -7.9194947 67.49209845 -17.4453125 67.3359375 C-26.43255887 66.57526147 -34.37087658 62.762818 -40.69140625 56.34375 C-47.63269842 47.85414956 -49.6701441 38.58317363 -49.30859375 27.76953125 C-48.24478167 17.32177685 -43.86960073 9.97002066 -35.9375 3.125 C-25.27556958 -4.73033403 -11.85504115 -5.77808728 0 0 Z " fill="#F6F0E7" transform="translate(423.9375,723.875)"/>
<path d="M0 0 C4.28476116 3.9246972 6.80359604 9.70542278 8.8125 15.0625 C8.8125 16.7125 8.8125 18.3625 8.8125 20.0625 C-9.3375 20.0625 -27.4875 20.0625 -46.1875 20.0625 C-42.99789843 9.43049476 -39.76079448 2.49837066 -30.1875 -2.9375 C-20.52589673 -7.65595741 -8.83303183 -5.36909778 0 0 Z " fill="#2966EB" transform="translate(1181.1875,728.9375)"/>
<path d="M0 0 C6.87368996 4.00683076 11.04219361 9.42753604 13.5 16.9375 C13.5 18.9175 13.5 20.8975 13.5 22.9375 C-4.32 22.9375 -22.14 22.9375 -40.5 22.9375 C-39.37842495 15.08647464 -37.42298152 9.29513093 -31.27734375 4.03515625 C-21.79168176 -2.4416981 -10.90805621 -5.03194095 0 0 Z " fill="#2966EB" transform="translate(1524.5,726.0625)"/>
<path d="M0 0 C1.22244667 0.00333092 1.22244667 0.00333092 2.46958923 0.00672913 C3.39046829 0.00680466 4.31134735 0.00688019 5.26013184 0.00695801 C6.2611644 0.01211929 7.26219696 0.01728058 8.29356384 0.02259827 C9.31316696 0.02401321 10.33277008 0.02542816 11.38327026 0.02688599 C14.65417867 0.03250355 17.92501972 0.04505902 21.19590759 0.05775452 C23.40749515 0.06276725 25.61908377 0.06733055 27.83067322 0.07142639 C33.26494116 0.08247868 38.69916957 0.09923389 44.13340759 0.12025452 C44.75840759 2.49525452 44.75840759 2.49525452 45.13340759 5.12025452 C43.13340759 7.12025452 43.13340759 7.12025452 39.41807556 7.3473053 C37.82054707 7.34698803 36.22299732 7.33565433 34.62559509 7.31556702 C33.36466537 7.31132217 33.36466537 7.31132217 32.07826233 7.30699158 C29.38816713 7.29577881 26.69840249 7.27067255 24.00840759 7.24525452 C22.18679781 7.23522612 20.36518282 7.22610003 18.54356384 7.21791077 C14.07328134 7.19753573 9.60371533 7.15838984 5.13340759 7.12025452 C5.13340759 14.71025452 5.13340759 22.30025452 5.13340759 30.12025452 C7.13145447 30.09705139 9.12950134 30.07384827 11.18809509 30.04994202 C13.12086999 30.03603716 15.05364611 30.02220246 16.98643494 30.01039124 C18.99252119 29.99537344 20.99852084 29.96996471 23.00450134 29.94447327 C24.26133728 29.93802795 25.51817322 29.93158264 26.81309509 29.92494202 C27.97566833 29.91446838 29.13824158 29.90399475 30.33604431 29.89320374 C33.13340759 30.12025452 33.13340759 30.12025452 35.13340759 32.12025452 C34.80340759 33.77025452 34.47340759 35.42025452 34.13340759 37.12025452 C24.56340759 37.12025452 14.99340759 37.12025452 5.13340759 37.12025452 C5.21253934 46.57422626 5.21253934 46.57422626 5.31358337 56.02796936 C5.32107605 57.78681458 5.32107605 57.78681458 5.32872009 59.58119202 C5.33919373 60.78565979 5.34966736 61.99012756 5.36045837 63.23109436 C5.13340759 66.12025452 5.13340759 66.12025452 3.13340759 68.12025452 C-1.42214796 67.56469896 -1.42214796 67.56469896 -2.86659241 66.12025452 C-2.96594389 64.10075243 -2.99458749 62.07774537 -2.99598694 60.05580139 C-2.9991391 58.75775574 -3.00229126 57.45971008 -3.00553894 56.12232971 C-3.00374916 54.6945543 -3.00169821 53.2667792 -2.99940491 51.83900452 C-3.00007799 50.38551314 -3.00104804 48.93202187 -3.00230408 47.47853088 C-3.00378087 44.42859325 -3.00162711 41.37868485 -2.9969635 38.32875061 C-2.99126621 34.41094892 -2.99454532 30.49321574 -3.00053596 26.57541656 C-3.00414209 23.57294698 -3.00300276 20.57049375 -3.00040817 17.56802368 C-2.99973905 16.12306714 -3.00056683 14.67810913 -3.00288773 13.2331543 C-3.00541506 11.21700568 -3.00088292 9.20085189 -2.99598694 7.18470764 C-2.99519135 6.03522644 -2.99439575 4.88574524 -2.99357605 3.70143127 C-2.82041947 0.18170447 -2.82041947 0.18170447 0 0 Z " fill="#FCF6EC" transform="translate(320.86659240722656,721.8797454833984)"/>
<path d="M0 0 C2.62667229 1.77133559 3.34946301 3.12487106 5 6 C5.59077522 9.61849825 5.26276677 11.4219131 3.75 14.75 C1.13648849 18.11022909 -0.71119958 18.8038782 -4.875 19.4375 C-8.22191495 18.96893191 -10.34737101 18.07128632 -12.85546875 15.76171875 C-14.82448978 12.73090481 -14.74960255 9.84338721 -14.5078125 6.31640625 C-14 4 -14 4 -12.0625 1.375 C-7.92081126 -0.48453372 -4.455767 -1.06358272 0 0 Z " fill="#F9F5EE" transform="translate(674,678)"/>
<path d="M0 0 C0.33 0 0.66 0 1 0 C1.15855469 0.90878906 1.31710937 1.81757812 1.48046875 2.75390625 C6.14725805 27.89268841 16.21147729 48.07485935 34.8347168 65.81298828 C36.25600982 67.17517551 37.6324654 68.58385134 39 70 C39 70.66 39 71.32 39 72 C25.29353074 67.57062035 14.91728184 49.30105443 8.6875 37.125 C4.86186107 29.35928399 2.26214136 21.34712627 0 13 C-0.20141602 12.30519531 -0.40283203 11.61039063 -0.61035156 10.89453125 C-1.63386484 7.1968973 -2.22507796 4.65082994 -1 1 C-0.67 0.67 -0.34 0.34 0 0 Z " fill="#E3E1E0" transform="translate(270,762)"/>
<path d="M0 0 C1.90625 0.453125 1.90625 0.453125 4.40625 2.640625 C6.05550334 5.732975 6.67512558 7.0359002 5.90625 10.453125 C3.2491169 14.07648832 1.82024461 15.30881006 -2.65625 16.015625 C-6.09375 15.453125 -6.09375 15.453125 -8.53125 13.890625 C-10.69771028 10.51094696 -10.65663002 8.39328513 -10.09375 4.453125 C-7.53375009 0.29312514 -4.61888003 -0.24128478 0 0 Z " fill="#F6F3EE" transform="translate(473.09375,760.546875)"/>
<path d="M0 0 C3 2.0625 3 2.0625 5 5 C5 8.51955419 4.63108355 10.84920059 2.9375 13.9375 C-0.27568922 15.69957151 -3.49721385 15.7470731 -7 15 C-10.02791041 12.42627616 -10.86162709 10.84753406 -11.5 6.9375 C-11 4 -11 4 -9.4375 1.625 C-6.02544071 -0.64970619 -4.02388226 -0.63534983 0 0 Z " fill="#F8F4EE" transform="translate(458,799)"/>
<path d="M0 0 C0.99 0.33 1.98 0.66 3 1 C-1.06529216 5.57141287 -5.46296629 8.21144138 -10.875 11 C-11.71345459 11.43570313 -12.55190918 11.87140625 -13.41577148 12.3203125 C-24.65368545 18.01979169 -37.24382404 23 -50 23 C-50 22.01 -50 21.02 -50 20 C-49.16359985 19.81993408 -49.16359985 19.81993408 -48.31030273 19.63623047 C-22.1850486 14.16119474 -22.1850486 14.16119474 0 0 Z " fill="#E2DFDA" transform="translate(438,835)"/>
<path d="M0 0 C0.99 0.33 1.98 0.66 3 1 C-1.04592736 5.5648439 -5.39660383 8.08412314 -10.8125 10.8125 C-11.60076172 11.21919922 -12.38902344 11.62589844 -13.20117188 12.04492188 C-15.12976398 13.03843902 -17.06429656 14.02041028 -19 15 C-19 14.01 -19 13.02 -19 12 C-17.47119141 10.77319336 -17.47119141 10.77319336 -15.3515625 9.58984375 C-14.59359375 9.15736328 -13.835625 8.72488281 -13.0546875 8.27929688 C-11.85199219 7.61510742 -11.85199219 7.61510742 -10.625 6.9375 C-9.05322486 6.05337648 -7.48284625 5.16676437 -5.9140625 4.27734375 C-5.2123291 3.88796631 -4.5105957 3.49858887 -3.78759766 3.09741211 C-1.84546055 2.00057141 -1.84546055 2.00057141 0 0 Z " fill="#E3E2E2" transform="translate(438,835)"/>
<path d="M0 0 C0.33 0 0.66 0 1 0 C1.19335938 0.99 1.38671875 1.98 1.5859375 3 C2.90583391 9.70812945 4.24604682 16.38894572 6 23 C5.01 23.33 4.02 23.66 3 24 C2.13003414 20.92090233 1.28184148 17.83621369 0.4375 14.75 C0.19064453 13.87730469 -0.05621094 13.00460937 -0.31054688 12.10546875 C-0.53935547 11.26113281 -0.76816406 10.41679688 -1.00390625 9.546875 C-1.21861572 8.77182617 -1.4333252 7.99677734 -1.65454102 7.19824219 C-2.03335907 4.78772784 -1.80393442 3.28833854 -1 1 C-0.67 0.67 -0.34 0.34 0 0 Z " fill="#E3E0DB" transform="translate(270,762)"/>
<path d="M0 0 C6.95660771 0.57021375 13.31427305 2.01302694 20 4 C20 4.99 20 5.98 20 7 C9.605 5.02 9.605 5.02 -1 3 C-0.67 2.01 -0.34 1.02 0 0 Z " fill="#D7D6D8" transform="translate(388,642)"/>
<path d="M0 0 C1.49341969 2.98683937 0.40648676 4.95160978 -0.4375 8.125 C-0.72496094 9.22070312 -1.01242187 10.31640625 -1.30859375 11.4453125 C-1.53675781 12.28835938 -1.76492188 13.13140625 -2 14 C-2.99 13.67 -3.98 13.34 -5 13 C-4.74500159 11.20601116 -4.47046186 9.41479125 -4.1875 7.625 C-4.03667969 6.62726562 -3.88585937 5.62953125 -3.73046875 4.6015625 C-3 2 -3 2 0 0 Z " fill="#D8D8D9" transform="translate(274,718)"/>
<path d="M0 0 C0 0.66 0 1.32 0 2 C-4.26616316 3.13764351 -7.56486311 4 -12 4 C-12 3.01 -12 2.02 -12 1 C-7.9472484 0.01751476 -4.16138263 -0.08159574 0 0 Z " fill="#E0E1E4" transform="translate(400,854)"/>
<path d="M0 0 C1.19872272 3.59616816 0.72500287 4.28921639 -0.8125 7.625 C-1.16957031 8.42164063 -1.52664063 9.21828125 -1.89453125 10.0390625 C-3 12 -3 12 -5 13 C-3.25740319 3.40546697 -3.25740319 3.40546697 0 0 Z " fill="#ECEAE8" transform="translate(277,707)"/>
<path d="M0 0 C2.3828125 0.0234375 2.3828125 0.0234375 5.125 0.375 C6.03507812 0.48585938 6.94515625 0.59671875 7.8828125 0.7109375 C8.93082031 0.85402344 8.93082031 0.85402344 10 1 C10 1.99 10 2.98 10 4 C5.97007218 3.44687265 1.97977076 2.8441938 -2 2 C-1.34 1.34 -0.68 0.68 0 0 Z " fill="#D8D9DF" transform="translate(348,853)"/>
<path d="M0 0 C2.12046792 3.53411321 2.53199289 6.94393835 3 11 C2.01 10.67 1.02 10.34 0 10 C-0.73046875 8.15234375 -0.73046875 8.15234375 -1.1875 5.9375 C-1.34605469 5.20402344 -1.50460937 4.47054687 -1.66796875 3.71484375 C-1.77753906 3.14894531 -1.88710938 2.58304688 -2 2 C-1.34 2 -0.68 2 0 2 C0 1.34 0 0.68 0 0 Z " fill="#D3D7E0" transform="translate(479,717)"/>
<path d="M0 0 C0.99 0 1.98 0 3 0 C4.32 2.64 5.64 5.28 7 8 C6.01 8.33 5.02 8.66 4 9 C0 2.25 0 2.25 0 0 Z " fill="#DEDCDC" transform="translate(464,690)"/>
<path d="M0 0 C-1 3 -1 3 -3.06640625 4.16796875 C-3.89011719 4.50441406 -4.71382813 4.84085938 -5.5625 5.1875 C-6.38878906 5.53167969 -7.21507812 5.87585938 -8.06640625 6.23046875 C-8.70449219 6.48441406 -9.34257812 6.73835937 -10 7 C-8.12832524 2.64475681 -4.98444818 0 0 0 Z " fill="#F2EEE8" transform="translate(428,843)"/>
<path d="M0 0 C0.33 2.97 0.66 5.94 1 9 C0.01 9.33 -0.98 9.66 -2 10 C-2.33 7.03 -2.66 4.06 -3 1 C-1 0 -1 0 0 0 Z " fill="#CBCED6" transform="translate(271,762)"/>
<path d="M0 0 C-0.99 1.485 -0.99 1.485 -2 3 C-3.9453125 3.29296875 -3.9453125 3.29296875 -6.125 3.1875 C-7.40375 3.125625 -8.6825 3.06375 -10 3 C-7.29536552 -0.8183075 -4.37912428 -0.24787496 0 0 Z " fill="#E1E3EA" transform="translate(366,642)"/>
<path d="M0 0 C0.99 0.33 1.98 0.66 3 1 C4.6875 4.5625 4.6875 4.5625 6 8 C5.01 8 4.02 8 3 8 C0 2.25 0 2.25 0 0 Z " fill="#F3EFE9" transform="translate(469,698)"/>
<path d="M0 0 C4.8 2.46153846 4.8 2.46153846 5.8125 5.1875 C5.874375 5.785625 5.93625 6.38375 6 7 C3 5.1875 3 5.1875 0 3 C0 2.01 0 1.02 0 0 Z " fill="#EBE8E3" transform="translate(440,663)"/>
<path d="M0 0 C0 0.66 0 1.32 0 2 C-1.98 2.33 -3.96 2.66 -6 3 C-6 2.34 -6 1.68 -6 1 C-6.66 0.67 -7.32 0.34 -8 0 C-4.94736336 -0.98120464 -3.05263664 -0.98120464 0 0 Z " fill="#CED0D6" transform="translate(406,853)"/>
<path d="M0 0 C5.75 1.875 5.75 1.875 8 3 C8 3.66 8 4.32 8 5 C4.62537285 4.45276317 2.91765 3.9451 0 2 C0 1.34 0 0.68 0 0 Z " fill="#F3EFE7" transform="translate(421,652)"/>
<path d="M0 0 C0 3 0 3 -2 5.1875 C-2.66 5.785625 -3.32 6.38375 -4 7 C-4 5.68 -4 4.36 -4 3 C-2 1.25 -2 1.25 0 0 Z " fill="#E8E5E2" transform="translate(294,680)"/>
<path d="M0 0 C2.31 0.33 4.62 0.66 7 1 C7 1.66 7 2.32 7 3 C4.36 3 1.72 3 -1 3 C-0.67 2.01 -0.34 1.02 0 0 Z " fill="#DCDEE5" transform="translate(388,642)"/>
</svg>
